<?xml version="1.0" standalone="no"?>
<!DOCTYPE svg PUBLIC "-//W3C//DTD SVG 20010904//EN"
 "http://www.w3.org/TR/2001/REC-SVG-20010904/DTD/svg10.dtd">
<svg version="1.0" xmlns="http://www.w3.org/2000/svg"
 width="260.000000pt" height="260.000000pt" viewBox="0 0 260.000000 260.000000"
 preserveAspectRatio="xMidYMid meet">
<metadata>
Created by potrace 1.14, written by Peter Selinger 2001-2017
</metadata>
<g transform="translate(0.000000,260.000000) scale(0.100000,-0.100000)"
fill="#000000" stroke="none">
<path d="M565 2341 c-168 -78 -164 -314 7 -385 134 -56 288 48 288 194 0 150
-160 253 -295 191z"/>
<path d="M1318 1780 c-88 -16 -163 -42 -253 -88 -74 -38 -108 -64 -191 -146
-83 -83 -108 -117 -147 -192 -72 -141 -91 -223 -91 -384 0 -161 19 -243 91
-384 39 -75 64 -109 147 -192 83 -83 117 -108 192 -147 141 -72 223 -91 384
-91 161 0 243 19 384 91 75 39 109 64 192 147 83 83 108 117 147 192 72 141
91 223 91 384 0 161 -19 243 -91 384 -39 75 -64 109 -147 192 -83 82 -117 108
-191 146 -127 65 -215 88 -355 93 -63 2 -136 0 -162 -5z"/>
</g>
</svg>
