<?xml version="1.0" encoding="UTF-8" standalone="no"?>
<!-- Uploaded to: SVG Repo, www.svgrepo.com, Generator: SVG Repo Mixer Tools -->

<svg
   fill="#ffffffff"
   height="320px"
   width="320px"
   version="1.2"
   id="Layer_1"
   viewBox="-351 153 256 247"
   xml:space="preserve"
   preserveAspectRatio="none"
   sodipodi:docname="eiffel_tower.svg"
   inkscape:version="1.2.2 (1:1.2.2+202212051552+b0a8486541)"
   xmlns:inkscape="http://www.inkscape.org/namespaces/inkscape"
   xmlns:sodipodi="http://sodipodi.sourceforge.net/DTD/sodipodi-0.dtd"
   xmlns="http://www.w3.org/2000/svg"
   xmlns:svg="http://www.w3.org/2000/svg"><defs
   id="defs1230"><rect
     x="-451.2303"
     y="-60.154054"
     width="777.01014"
     height="357.80286"
     id="rect1418" /><rect
     x="-146.32404"
     y="163.57449"
     width="66.935109"
     height="45.246981"
     id="rect1412" /><rect
     x="-302.37075"
     y="111.74654"
     width="201.64135"
     height="131.87659"
     id="rect1402" /><rect
     x="2.0363987"
     y="100.56432"
     width="125.92576"
     height="97.465528"
     id="rect1346" /></defs><sodipodi:namedview
   id="namedview1228"
   pagecolor="#ffffff"
   bordercolor="#000000"
   borderopacity="0.25"
   inkscape:showpageshadow="2"
   inkscape:pageopacity="0.0"
   inkscape:pagecheckerboard="0"
   inkscape:deskcolor="#d1d1d1"
   showgrid="false"
   inkscape:zoom="0.95546559"
   inkscape:cx="125.59322"
   inkscape:cy="84.252119"
   inkscape:window-width="1440"
   inkscape:window-height="782"
   inkscape:window-x="0"
   inkscape:window-y="27"
   inkscape:window-maximized="1"
   inkscape:current-layer="Layer_1" />
    <path
   d="m -187.10217,347.46521 c 1,0 1.6,0 1.6,0 v -9.39125 -3.37663 h -7 c -5.3,-13.18994 -9.4,-25.43022 -12.5,-36.6153 h 5.6 v -7.70293 h -7.6 c -9.2,-36.08771 -11.7,-108.79073 -11.7,-108.79073 2.2,-1.47727 3.6,-4.11526 3.6,-7.06981 0,-4.00975 -2.7,-7.38637 -6.3,-8.23053 v -13.71755 h -3.3 v 13.71755 c -3.6,0.84416 -6.3,4.22078 -6.3,8.23053 0,2.95455 1.4,5.48702 3.6,7.06981 0,0 -2.5,72.5975 -11.7,108.79073 h -7.6 v 7.70293 h 5.6 c -3.1,11.18508 -7.2,23.53088 -12.5,36.6153 h -7 v 12.76788 h 1.6 c -7.3,16.35554 -16.4,33.8718 -27.8,52.02117 h 28.9 c 0,0 0,-40.73057 34.9,-40.73057 34.9,0 34.9,40.73057 34.9,40.73057 h 28.9 c -11.5,-18.14937 -20.6,-35.66563 -27.9,-52.02117 z m -43.9,-41.36369 h 16 c 1.3,7.91397 4.5,22.68672 5.8,28.59581 h -27.7 c 1.3,-5.90909 4.6,-20.68184 5.9,-28.59581 z"
   id="path1225"
   style="fill:#ffffff;stroke:#ffffff;stroke-width:1.02723" />
<text
   xml:space="preserve"
   transform="translate(-351,153)"
   id="text1400"
   style="font-style:normal;font-variant:normal;font-weight:normal;font-stretch:normal;font-size:26.6667px;font-family:KacstScreen;-inkscape-font-specification:KacstScreen;white-space:pre;shape-inside:url(#rect1402);display:inline;fill:#000000;stroke:#000000;stroke-width:14.2299" /><text
   xml:space="preserve"
   transform="translate(-351,153)"
   id="text1410"
   style="font-style:normal;font-variant:normal;font-weight:normal;font-stretch:normal;font-size:26.6667px;font-family:KacstScreen;-inkscape-font-specification:KacstScreen;white-space:pre;shape-inside:url(#rect1412);display:inline;fill:#000000;stroke:#000000;stroke-width:14.2299" /></svg>
